<svg width="96" height="94" viewBox="0 0 96 94" fill="none" xmlns="http://www.w3.org/2000/svg">
<mask id="mask0_420_4993" style="mask-type:luminance" maskUnits="userSpaceOnUse" x="0" y="0" width="96" height="94">
<path d="M0 0L95.291 0L95.291 93.4226L0 93.4226L0 0Z" fill="white"/>
</mask>
<g mask="url(#mask0_420_4993)">
<path fill-rule="evenodd" clip-rule="evenodd" d="M8.3697 93.4226C3.7601 93.4226 0 89.6224 0 84.9741C0 80.2299 3.7601 76.5347 8.3697 76.5347C10.1577 76.5347 11.8534 77.0103 13.266 77.9623V76.7267H17.2126V93.0368H13.266V91.9929C11.8534 92.8503 10.2543 93.4226 8.3697 93.4226ZM3.85757 84.9741C3.85757 87.4434 6.02129 89.6224 8.46596 89.6224C11.0983 89.6224 13.266 87.4434 13.266 84.9741C13.266 82.4147 11.0983 80.2299 8.46596 80.2299C6.02129 80.2299 3.85757 82.4147 3.85757 84.9741ZM26.9961 93.4226C22.385 93.4226 18.5289 89.6224 18.5289 84.9741C18.5289 80.2299 22.385 76.5347 26.9961 76.5347C28.7832 76.5347 30.3814 77.0103 31.7952 77.9623L31.7952 71.1266H35.8384V93.0368H31.7952V91.9929C30.3814 92.8503 28.7832 93.4226 26.9961 93.4226ZM22.385 84.9741C22.385 87.4434 24.549 89.6224 27.1856 89.6224C29.6297 89.6224 31.7952 87.4434 31.7952 84.9741C31.7952 82.4147 29.6297 80.2299 27.1856 80.2299C24.549 80.2299 22.385 82.4147 22.385 84.9741ZM37.8123 93.0368H41.7622V76.7267H37.8123V93.0368ZM37.8123 75.2067H41.7622V71.1266H37.8123V75.2067ZM56.6291 71.1266H60.5793V93.0368H56.6291V91.9929C55.3139 92.8503 53.6161 93.4226 51.8339 93.4226C47.2182 93.4226 43.4606 89.6224 43.4606 84.9741C43.4606 80.2299 47.2182 76.5347 51.8339 76.5347C53.6161 76.5347 55.2174 77.0103 56.6291 77.9623V71.1266ZM47.3178 84.9741C47.3178 87.4434 49.477 89.6224 51.9253 89.6224C54.4629 89.6224 56.6291 87.4434 56.6291 84.9741C56.6291 82.4147 54.4629 80.2299 51.9253 80.2299C49.477 80.2299 47.3178 82.4147 47.3178 84.9741ZM70.3601 93.4226C65.7493 93.4226 61.895 89.6224 61.895 84.9741C61.895 80.2299 65.7493 76.5347 70.3601 76.5347C72.1532 76.5347 73.749 77.0103 75.0686 77.9623V76.7267H79.1121V93.0368H75.0686V91.9929C73.749 92.8503 72.1532 93.4226 70.3601 93.4226ZM65.8443 84.9741C65.8443 87.4434 68.0132 89.6224 70.5544 89.6224C72.9936 89.6224 75.0686 87.4434 75.0686 84.9741C75.0686 82.4147 72.9936 80.2299 70.5544 80.2299C68.0132 80.2299 65.8443 82.4147 65.8443 84.9741ZM87.9689 93.4226C91.9203 93.4226 95.2151 91.8039 95.2151 87.8158C95.2151 85.5424 93.6157 84.0251 91.0747 83.3628C88.4393 82.6995 85.0531 82.7926 85.0531 81.0879C85.2423 79.9469 86.2762 79.6633 87.8753 79.6633C90.3251 79.6633 90.4159 80.9917 90.5128 81.843H94.5539C94.2714 78.718 91.7299 76.5347 87.6891 76.5347C83.4513 76.5347 81.0063 78.8154 81.0063 81.7557C81.0063 83.4595 81.851 84.9741 83.2678 85.7347C84.3017 86.2103 85.7098 86.5881 87.4054 86.8741C89.1917 87.0612 90.7965 87.2496 90.8873 88.4839C90.8873 89.3395 90.0366 90.3843 88.1575 90.3843C85.4303 90.3843 84.863 88.8649 84.863 87.8158H80.6321C80.7272 91.1376 83.4513 93.4226 87.9689 93.4226ZM59.9214 39.9258C60.1109 37.744 60.2986 35.6575 60.2986 33.1924C60.2986 19.9182 54.3736 6.16416 47.8794 0C41.295 6.16416 35.4626 19.9182 35.4626 33.1924C35.4626 35.6575 35.4626 37.744 35.8384 39.9258H59.9214ZM33.6764 39.9258C32.6405 38.1274 31.2266 36.4172 29.8207 34.7088C21.7274 25.1331 9.21798 19.2482 0.657867 18.6817C0.0947569 24.8462 1.973 32.3396 5.73642 39.9258L33.6764 39.9258ZM47.8794 66.669C49.8518 64.584 51.9253 61.7374 53.8072 58.1357H41.8584C43.836 61.7374 45.719 64.584 47.8794 66.669ZM41.2039 66.101C41.295 64.0172 41.295 61.1736 40.9151 58.1357H21.7274C28.5065 63.1625 35.8384 65.7195 41.2039 66.101ZM95.1975 18.6817C86.5415 19.2482 74.1256 25.1331 66.0378 34.7088C64.5313 36.4172 63.2156 38.1274 62.1781 39.9258L90.02 39.9258C93.7828 32.3396 95.7561 24.8462 95.1975 18.6817ZM73.94 58.1357L54.9346 58.1357C54.3736 61.1736 54.3736 64.0172 54.3736 66.101C59.9214 65.7195 67.2608 63.1625 73.94 58.1357ZM82.498 51.119L13.17 51.119C14.298 52.4477 15.5193 53.6747 16.7418 54.5306L78.6435 54.5306C80.1405 53.6747 81.5589 52.4477 82.498 51.119ZM88.1433 43.5328C87.5775 44.6697 86.5415 46.2808 85.5984 47.2261L10.0672 47.2261C9.49984 46.4688 8.18199 44.7647 7.61677 43.5328L88.1433 43.5328Z" fill="white"/>
</g>
</svg>
