<svg width="141" height="94" viewBox="0 0 141 94" fill="none" xmlns="http://www.w3.org/2000/svg">
<mask id="mask0_420_4996" style="mask-type:luminance" maskUnits="userSpaceOnUse" x="0" y="0" width="141" height="94">
<path d="M0.949219 0H140.13V93.4226H0.949219V0Z" fill="#003B44"/>
</mask>
<g mask="url(#mask0_420_4996)">
<path fill-rule="evenodd" clip-rule="evenodd" d="M84.1148 33.5583L53.3117 67.1166H79.656L110.459 33.5583L79.656 0H53.3117L84.1148 33.5583ZM53.3117 29.0094L67.3353 33.5583L53.3117 38.1072V52.8264L44.6434 40.9166L30.6198 45.4655L39.2881 33.5583L30.6198 21.6485L44.6434 26.2L53.3117 14.2902V29.0094ZM77.2582 77.2577H89.7487V81.4121H81.4226V83.0749H88.9158V86.8163H81.4226V88.6856H89.7487V92.8427H77.2582V77.2577ZM30.8877 85.0873C30.8877 82.9081 29.1158 81.1394 26.9328 81.1394C24.7472 81.1394 22.978 82.9081 22.978 85.0873C22.978 87.2664 24.7472 89.0351 26.9328 89.0351C29.1158 89.0351 30.8877 87.2664 30.8877 85.0873ZM35.3757 85.0873C35.3757 89.6494 31.5879 93.3617 26.9328 93.3617C22.2751 93.3617 18.4874 89.6494 18.4874 85.0873C18.4874 80.5251 22.2751 76.8129 26.9328 76.8129C31.5879 76.8129 35.3757 80.5251 35.3757 85.0873ZM124.165 88.1402V88.1878C124.165 91.4711 121.411 93.4226 117.499 93.4226C114.645 93.4226 111.777 92.5276 109.799 90.7615L112.319 87.796C113.905 89.0616 115.746 89.7262 117.608 89.7262C118.804 89.7262 119.584 89.3132 119.584 88.6247V88.5771C119.584 87.9125 118.974 87.5444 116.788 87.0387C113.358 86.2576 110.634 85.2938 110.634 81.9867V81.939C110.634 78.9549 112.96 76.797 116.825 76.797C119.562 76.797 121.661 77.5304 123.409 78.9338L120.907 81.8808C119.326 80.9487 118.159 80.496 116.735 80.496C115.653 80.496 115.212 80.9514 115.212 81.526V81.5736C115.212 82.3071 115.846 82.6301 118.077 83.1358C121.783 83.9381 124.165 85.1349 124.165 88.1402ZM127.642 77.2577H140.13V81.4121H131.804V83.0749H139.297V86.8163H131.804V88.6856H140.13V92.8427H127.642V77.2577ZM102.648 82.2462C102.648 81.7431 102.237 81.4121 101.727 81.4121H98.0536V83.0749H101.727C102.237 83.0749 102.648 82.7439 102.648 82.2462ZM107.775 92.8427H103.083L100.401 87.4147C100.295 87.2611 100.12 87.232 99.9315 87.232H98.0536V92.8427H93.8918V77.2577H101.86C104.563 77.2577 106.828 79.27 107.022 81.8596C107.165 83.7793 106.202 85.5189 104.547 86.48L107.775 92.8427ZM69.2371 77.2577H74.0248L68.9347 92.8427H62.1205L57.0304 77.2577H61.8155L65.2823 88.3282C65.33 88.4791 65.4573 88.4897 65.5263 88.4897C65.5979 88.4897 65.7703 88.4791 65.7703 88.3282V88.3547L69.2371 77.2577ZM49.6433 77.2577H53.8077V92.8427H49.0465L42.7761 84.1155V92.8427H38.6117V77.2577H42.8875L49.6433 86.0617V77.2577ZM5.53534 85.0846C5.53534 87.2479 7.40268 89.0775 9.61219 89.0775C10.8085 89.0775 11.9623 88.5188 12.7739 87.5471L13.0657 87.1976L16.7898 89.7527L16.4476 90.1711C14.7978 92.1966 12.3071 93.359 9.61219 93.359C4.83509 93.359 0.949219 89.6468 0.949219 85.0846C0.949219 80.5224 4.83509 76.8102 9.61219 76.8102C12.331 76.8102 14.8349 77.9885 16.4847 80.0432L16.819 80.4615L13.0975 83.0167L12.8058 82.6592C12.0021 81.6795 10.8111 81.0944 9.61219 81.0944C7.40268 81.0944 5.53534 82.9214 5.53534 85.0846Z" fill="white"/>
</g>
</svg>
