<svg width="72" height="48" viewBox="0 0 72 48" fill="none" xmlns="http://www.w3.org/2000/svg">
<path d="M10.0378 9.5386C11.6411 9.91338 12.9736 10.3402 14.0355 10.8191C15.0974 11.2772 15.951 11.9226 16.5965 12.7555C17.2419 13.5675 17.5647 14.6189 17.5647 15.9098C17.5647 17.1799 17.1691 18.3043 16.3779 19.2829C15.5867 20.2406 14.4623 20.9902 13.0048 21.5315C11.5682 22.0521 9.8921 22.3123 7.97656 22.3123V19.3141C10.0378 19.3141 11.6098 19.0226 12.6925 18.4396C13.796 17.8358 14.3478 17.0238 14.3478 16.0035C14.3478 15.2956 14.15 14.7439 13.7544 14.3483C13.3588 13.9318 12.8383 13.6195 12.1928 13.4113C11.5682 13.1823 10.5792 12.9012 9.22583 12.5681C7.31029 12.0684 5.79035 11.5895 4.66602 11.1314C3.54168 10.6525 2.56309 9.85092 1.73025 8.72658C0.897408 7.58142 0.480987 6.00943 0.480987 4.01061C0.480987 2.99038 0.585092 1.69948 0.793303 0.137896H16.8776V3.07367H3.57291C3.51045 3.57337 3.47922 4.03143 3.47922 4.44785C3.47922 5.55137 3.72907 6.41544 4.22878 7.04007C4.7493 7.66471 5.4364 8.14359 6.29006 8.47673C7.16454 8.80986 8.41381 9.16382 10.0378 9.5386ZM40.0499 0.137896V22H36.9268V12.5681H24.4341V22H21.311V0.137896H24.4341V9.56983H36.9268V0.137896H40.0499ZM48.491 0.137896V22H45.3678V0.137896H48.491ZM70.674 0.137896V1.07484C70.674 3.71912 70.0806 6.05107 68.8938 8.07072C67.707 10.0695 66.0621 11.6207 63.9592 12.7242C61.8771 13.8069 59.5347 14.3483 56.9321 14.3483V22H53.8089V0.137896H70.674ZM56.9321 11.5062C58.806 11.5062 60.4821 11.1626 61.9603 10.4755C63.4595 9.76763 64.6775 8.77863 65.6144 7.50855C66.5514 6.21764 67.1448 4.71853 67.3946 3.0112H56.9321V11.5062ZM7.97404 36.7384C9.29425 37.047 10.3916 37.3985 11.266 37.7929C12.1404 38.1701 12.8434 38.7016 13.3749 39.3874C13.9064 40.0561 14.1721 40.9219 14.1721 41.9849C14.1721 43.0308 13.8464 43.9567 13.1948 44.7625C12.5433 45.5512 11.6175 46.1684 10.4173 46.6142C9.23424 47.0429 7.85403 47.2572 6.27664 47.2572V44.7882C7.97404 44.7882 9.26853 44.5482 10.1601 44.0681C11.0688 43.5709 11.5232 42.9022 11.5232 42.0621C11.5232 41.4791 11.3603 41.0248 11.0345 40.699C10.7088 40.3561 10.2801 40.0989 9.7486 39.9275C9.23424 39.7389 8.41983 39.5074 7.30537 39.2331C5.72798 38.8216 4.47636 38.4273 3.55051 38.05C2.62465 37.6557 1.81881 36.9956 1.13299 36.0697C0.447171 35.1267 0.104261 33.8323 0.104261 32.1863C0.104261 31.3462 0.189988 30.2831 0.361443 28.9972H13.6063V31.4147H2.65037C2.59893 31.8262 2.57321 32.2034 2.57321 32.5463C2.57321 33.4551 2.77896 34.1666 3.19045 34.681C3.61909 35.1953 4.18489 35.5897 4.88785 35.864C5.60797 36.1383 6.6367 36.4298 7.97404 36.7384ZM32.4309 28.9972V47H29.8591V39.2331H19.5718V47H16.9999V28.9972H19.5718V36.7641H29.8591V28.9972H32.4309ZM44.7827 47.2572C43.051 47.2572 41.465 46.8543 40.0248 46.0484C38.5846 45.2254 37.453 44.111 36.63 42.7051C35.807 41.282 35.3955 39.7132 35.3955 37.9986C35.3955 36.2841 35.807 34.7238 36.63 33.3179C37.453 31.8948 38.5846 30.7804 40.0248 29.9745C41.465 29.1515 43.051 28.74 44.7827 28.74C46.5144 28.74 48.1003 29.1515 49.5406 29.9745C50.9808 30.7804 52.1124 31.8948 52.9354 33.3179C53.7584 34.7238 54.1698 36.2841 54.1698 37.9986C54.1698 39.7132 53.7584 41.282 52.9354 42.7051C52.1124 44.111 50.9808 45.2254 49.5406 46.0484C48.1003 46.8543 46.5144 47.2572 44.7827 47.2572ZM44.7827 44.7882C46.0172 44.7882 47.1402 44.4882 48.1518 43.8881C49.1805 43.288 49.9863 42.4736 50.5693 41.4449C51.1694 40.399 51.4694 39.2502 51.4694 37.9986C51.4694 36.747 51.1694 35.6068 50.5693 34.5781C49.9863 33.5322 49.1805 32.7092 48.1518 32.1091C47.1402 31.509 46.0172 31.209 44.7827 31.209C43.5482 31.209 42.4166 31.509 41.3879 32.1091C40.3763 32.7092 39.5705 33.5322 38.9704 34.5781C38.3874 35.6068 38.0959 36.747 38.0959 37.9986C38.0959 39.2502 38.3874 40.399 38.9704 41.4449C39.5705 42.4736 40.3763 43.288 41.3879 43.8881C42.4166 44.4882 43.5482 44.7882 44.7827 44.7882ZM71.0233 28.9972V29.7688C71.0233 31.9463 70.5347 33.8665 69.5574 35.5297C68.5801 37.1756 67.2256 38.453 65.4939 39.3617C63.7794 40.2532 61.8505 40.699 59.7073 40.699V47H57.1355V28.9972H71.0233ZM59.7073 38.3587C61.2504 38.3587 62.6306 38.0758 63.8479 37.51C65.0824 36.927 66.0854 36.1126 66.857 35.0667C67.6285 34.0037 68.1172 32.7692 68.3229 31.3633H59.7073V38.3587Z" fill="#191919"/>
</svg>
