<svg width="134" height="74" viewBox="0 0 134 74" fill="none" xmlns="http://www.w3.org/2000/svg">
<path fill-rule="evenodd" clip-rule="evenodd" d="M51.3156 32.2115L47.1994 39.2243L24.5228 37.9603L26.7823 34.0565L51.3156 32.2115ZM67.7219 9.81624L69.766 17.5726L37.5738 15.4673L39.838 11.552L67.7219 9.81624ZM46.3659 0.303223L65.2166 0.314841L66.6402 5.62205L44.0947 4.21392L46.3659 0.303223ZM44.7081 43.5997L41.4348 49.1858L17.9902 49.2114L20.2497 45.2937L44.7081 43.5997ZM85.8796 28.5262L80.204 38.3111H85.6104C88.1157 38.3111 92.5995 37.0564 93.9903 33.5151C95.2711 30.2341 92.9109 28.5262 91.2766 28.5262H85.8796ZM91.3047 19.1898L96.0086 19.1712C99.1461 19.1387 102.419 17.7236 103.604 14.833C104.721 12.1469 103.244 9.86968 101.277 9.88362L96.711 9.86968L91.3047 19.1898ZM69.9463 17.5726L74.7158 9.37242L90.8294 8.35234L91.3937 7.34387L76.4859 6.31217L79.9699 0.303223H107.61C116.117 0.303223 122.401 3.31467 119.964 12.2026C119.228 14.8795 115.77 21.6482 105.634 24.4738C107.791 24.7224 113.138 27.0856 112.211 33.1945C110.579 44.0343 96.4605 49.1858 88.591 49.1858L55.9516 49.1997L54.3337 42.9212L71.4378 41.7432L72.0301 40.7417L53.4721 39.6193L51.4819 32.1976L77.8626 30.6663L78.441 29.6834L31.0319 26.7161L33.3101 22.7985L84.3249 19.5244L84.9056 18.5229L69.9463 17.5726Z" fill="white"/>
<mask id="mask0_420_4995" style="mask-type:luminance" maskUnits="userSpaceOnUse" x="0" y="59" width="12" height="14">
<path d="M0.820312 59.9297H11.876V72.7121H0.820312V59.9297Z" fill="#003B44"/>
</mask>
<g mask="url(#mask0_420_4995)">
<path fill-rule="evenodd" clip-rule="evenodd" d="M0.820312 72.7121H3.79859V66.8286C3.79859 65.7899 3.7986 64.4933 4.33712 63.7381C4.87799 62.9133 5.84734 62.6553 6.3765 62.6553C8.89586 62.6553 8.89586 65.5924 8.89586 66.6009V72.7121H11.8765V66.0316C11.8765 65.0742 11.8765 63.0015 10.7292 61.6445C9.70131 60.3898 8.05997 59.9297 6.98761 59.9297C5.10511 59.9297 4.07488 60.9498 3.57616 61.4215V60.3503H0.820312V72.7121Z" fill="white"/>
</g>
<path fill-rule="evenodd" clip-rule="evenodd" d="M25.4439 67.8464C25.5328 67.4583 25.6288 66.9448 25.6288 66.3685C25.6288 63.2548 23.1376 59.8623 19.1829 59.8623C15.343 59.8623 12.627 63.0713 12.627 66.573C12.627 70.1793 15.5022 73.1187 19.204 73.1187C22.1167 73.1187 24.505 71.0367 25.2214 68.8153H22.0746C21.5173 69.847 20.5292 70.3954 19.204 70.3954C17.071 70.3954 15.9049 68.6527 15.7691 67.8464H25.4439ZM15.6848 65.4739C16.2444 63.1781 18.1129 62.5763 19.204 62.5763C20.6838 62.5763 22.2338 63.4942 22.5733 65.4739H15.6848Z" fill="white"/>
<path fill-rule="evenodd" clip-rule="evenodd" d="M29.4529 72.7119H31.2886L33.6511 64.6953H33.6956L36.0253 72.7119H37.861L42.4221 60.3501H39.2401L36.9478 67.9043H36.9057L34.878 60.3501H32.5085L30.4597 67.9043H30.4199L28.1464 60.3501H24.9551L29.4529 72.7119Z" fill="white"/>
<path fill-rule="evenodd" clip-rule="evenodd" d="M48.1934 72.712H50.9305V71.2155C51.675 72.0474 52.731 73.1186 55.1286 73.1186C59.685 73.1186 61.3193 68.957 61.3193 66.4823C61.3193 63.2013 58.8492 59.9296 55.0631 59.9296C53.6629 59.9296 52.2136 60.4338 51.174 61.4632V56.2373H48.1934V72.712ZM51.0054 66.3707C51.0054 64.5699 52.4149 62.6552 54.7072 62.6552C56.5827 62.6552 58.3434 64.0936 58.3434 66.5032C58.3434 68.9035 56.6974 70.3953 54.7353 70.3953C52.9979 70.3953 51.0054 69.1033 51.0054 66.3707Z" fill="white"/>
<path fill-rule="evenodd" clip-rule="evenodd" d="M75.2502 60.3493H72.5131V61.9061H72.4709C72.3866 61.7412 70.8811 59.9287 68.336 59.9287C64.8824 59.9287 62.1055 62.6729 62.1055 66.4651C62.1055 70.5733 64.9456 73.1177 68.1557 73.1177C69.7291 73.1177 71.5695 72.2905 72.5131 71.1728V72.7111H75.2502V60.3493ZM72.4311 66.5023C72.4311 68.7888 70.86 70.3944 68.7809 70.3944C66.6619 70.3944 65.0861 68.6819 65.0861 66.5906C65.0861 64.7363 66.3434 62.6543 68.7809 62.6543C70.565 62.6543 72.4311 63.9393 72.4311 66.5023Z" fill="white"/>
<mask id="mask1_420_4995" style="mask-type:luminance" maskUnits="userSpaceOnUse" x="0" y="0" width="134" height="74">
<path d="M0.820312 73.1194H133.949V0.303223H0.820312V73.1194Z" fill="#003B44"/>
</mask>
<g mask="url(#mask1_420_4995)">
<path fill-rule="evenodd" clip-rule="evenodd" d="M76.8418 72.7125H79.8224V56.2378H76.8418V72.7125Z" fill="white"/>
</g>
<mask id="mask2_420_4995" style="mask-type:luminance" maskUnits="userSpaceOnUse" x="0" y="0" width="134" height="74">
<path d="M0.820312 73.1194H133.949V0.303223H0.820312V73.1194Z" fill="#003B44"/>
</mask>
<g mask="url(#mask2_420_4995)">
<path fill-rule="evenodd" clip-rule="evenodd" d="M93.8724 60.3493H91.1283V61.9061H91.0885C91.0019 61.7412 89.4893 59.9287 86.9512 59.9287C83.4976 59.9287 80.7207 62.6729 80.7207 66.4651C80.7207 70.5733 83.5726 73.1177 86.7873 73.1177C88.3561 73.1177 90.1847 72.2905 91.1283 71.1728V72.7111H93.8724V60.3493ZM91.044 66.5023C91.044 68.7888 89.4636 70.3944 87.4078 70.3944C85.2771 70.3944 83.7083 68.6819 83.7083 66.5906C83.7083 64.7363 84.9634 62.6543 87.4078 62.6543C89.1802 62.6543 91.044 63.9393 91.044 66.5023Z" fill="white"/>
</g>
<mask id="mask3_420_4995" style="mask-type:luminance" maskUnits="userSpaceOnUse" x="0" y="0" width="134" height="74">
<path d="M0.820312 73.1194H133.949V0.303223H0.820312V73.1194Z" fill="#003B44"/>
</mask>
<g mask="url(#mask3_420_4995)">
<path fill-rule="evenodd" clip-rule="evenodd" d="M95.457 72.7121H98.4447V66.8286C98.4447 65.7899 98.4447 64.4933 98.9785 63.7382C99.5171 62.9133 100.484 62.6553 101.023 62.6553C103.535 62.6553 103.535 65.5924 103.535 66.6009V72.7121H106.525V66.0316C106.525 65.0742 106.525 63.0016 105.378 61.6445C104.35 60.3898 102.711 59.9297 101.627 59.9297C99.7395 59.9297 98.7116 60.9498 98.2129 61.4215V60.3503H95.457V72.7121Z" fill="white"/>
</g>
<mask id="mask4_420_4995" style="mask-type:luminance" maskUnits="userSpaceOnUse" x="0" y="0" width="134" height="74">
<path d="M0.820312 73.1194H133.949V0.303223H0.820312V73.1194Z" fill="#003B44"/>
</mask>
<g mask="url(#mask4_420_4995)">
<path fill-rule="evenodd" clip-rule="evenodd" d="M117.124 68.6819C116.34 69.932 115.352 70.3944 114.368 70.3944C112.121 70.3944 110.617 68.6401 110.617 66.5139C110.617 63.9788 112.42 62.6543 114.232 62.6543C116.066 62.6543 116.773 63.8324 117.124 64.4529H120.493C119.215 60.6421 115.801 59.9287 114.232 59.9287C110.795 59.9287 107.637 62.6846 107.637 66.4837C107.637 70.5733 111.062 73.1177 114.254 73.1177C117.18 73.1177 119.477 71.4447 120.493 68.6819H117.124Z" fill="white"/>
</g>
<mask id="mask5_420_4995" style="mask-type:luminance" maskUnits="userSpaceOnUse" x="0" y="0" width="134" height="74">
<path d="M0.820312 73.1194H133.949V0.303223H0.820312V73.1194Z" fill="white"/>
</mask>
<g mask="url(#mask5_420_4995)">
<path fill-rule="evenodd" clip-rule="evenodd" d="M133.768 67.8464C133.864 67.4583 133.948 66.9448 133.948 66.3685C133.948 63.2548 131.455 59.8623 127.514 59.8623C123.667 59.8623 120.963 63.0713 120.963 66.573C120.963 70.1793 123.824 73.1187 127.535 73.1187C130.439 73.1187 132.825 71.0367 133.546 68.8153H130.399C129.837 69.847 128.849 70.3954 127.535 70.3954C125.393 70.3954 124.236 68.6527 124.1 67.8464H133.768ZM124.004 65.4739C124.569 63.1781 126.421 62.5763 127.535 62.5763C129.008 62.5763 130.556 63.4942 130.898 65.4739H124.004Z" fill="white"/>
</g>
</svg>
