<svg width="153" height="54" viewBox="0 0 153 54" fill="none" xmlns="http://www.w3.org/2000/svg">
<path fill-rule="evenodd" clip-rule="evenodd" d="M17.0413 53.381C12.4979 53.2037 8.77813 51.9834 5.8725 49.7146C5.31769 49.2818 3.99261 47.9834 3.55028 47.4343C2.37392 45.9777 1.57125 44.563 1.0355 42.9901C-0.60988 38.1512 0.23855 31.8004 3.45686 24.8299C6.21378 18.8642 10.4693 12.9481 17.8897 4.75167C18.986 3.5448 22.2405 0.0195312 22.2615 0.0195312C22.2691 0.0195312 22.0918 0.320771 21.8687 0.688742C19.9393 3.8632 18.2882 7.60201 17.3883 10.8413C15.9431 16.0348 16.1185 20.4924 17.8973 23.9471C19.1271 26.3304 21.2338 28.3933 23.6018 29.5334C27.7505 31.5296 33.8211 31.6936 41.2339 30.0139C41.7468 29.9014 67.0433 23.3065 97.4533 15.3618C127.858 7.41707 152.74 0.919438 152.744 0.927065C152.752 0.932784 82.0996 30.624 45.4227 46.0273C39.6133 48.4658 38.0575 49.0797 35.3292 50.0216C28.3492 52.4315 22.0937 53.5793 17.0413 53.381Z" fill="white"/>
</svg>
