<svg width="153" height="77" viewBox="0 0 153 77" fill="none" xmlns="http://www.w3.org/2000/svg">
<path fill-rule="evenodd" clip-rule="evenodd" d="M147.584 1.68553C140.179 6.10499 139.088 13.9029 136.522 18.3796C134.476 21.9582 131.149 24.5874 128.171 24.8009C125.944 24.9668 123.54 24.513 121.145 23.4549C115.325 20.8886 112.139 17.575 111.386 16.9897C109.822 15.7752 97.6811 3.78659 87.8432 3.2985C87.8432 3.2985 86.621 0.837102 86.3141 0.797064C85.5953 0.703641 84.8593 2.26513 84.3293 2.44626C83.8336 2.61022 83.0004 0.758932 82.499 0.840915C82.0014 0.915272 81.5209 2.76084 80.5562 3.72557C79.8508 4.42148 78.9699 4.37763 78.5028 5.23749C78.3255 5.5578 78.3808 6.10499 78.1825 6.63121C77.7878 7.68364 76.4017 7.77516 76.4017 8.92101C76.396 10.1603 77.5552 10.3948 78.5619 11.2756C79.3474 11.9811 79.4218 12.4692 80.3732 12.8123C81.1854 13.0888 82.3922 12.1832 83.479 12.5092C84.3694 12.7742 85.2235 12.9687 85.4237 13.8896C85.6029 14.7418 85.4123 16.0554 84.3293 15.9029C83.9671 15.8629 82.3846 15.3271 80.4418 15.5369C78.0986 15.8019 75.4237 16.574 75.1625 19.2032C75.0176 20.6694 76.825 22.4006 78.5714 22.0517C79.7764 21.8133 79.2063 20.3796 79.8603 19.6856C80.724 18.7971 85.6029 22.7933 90.1368 22.7933C92.0472 22.7933 93.4676 22.3071 94.8784 20.8219C95.01 20.7075 95.1721 20.4673 95.3742 20.4501C95.5686 20.4673 95.9042 20.656 96.0129 20.7361C99.664 23.6894 102.427 29.6132 115.853 29.6818C117.744 29.6913 119.893 30.6008 121.649 32.2118C123.218 33.6666 124.131 35.9373 125.022 38.2347C126.368 41.6837 128.774 45.0393 132.425 48.7743C132.623 48.9745 135.628 51.3253 135.87 51.4988C135.908 51.5255 136.129 52.0555 136.051 52.3511C135.963 54.5913 135.639 61.1023 140.467 61.3978C141.645 61.4588 141.338 60.6218 141.338 60.0479C141.334 58.9154 141.128 57.7867 141.723 56.6256C142.535 55.0298 139.998 54.2958 140.074 50.8411C140.125 48.2672 137.975 48.7076 136.886 46.7457C136.257 45.6075 135.698 45.0069 135.737 43.6151C135.982 35.7962 134.084 30.6542 133.136 29.3939C132.394 28.4406 131.784 28.0631 132.459 27.6227C136.49 24.9439 137.401 22.4578 137.401 22.4578C139.544 17.392 141.472 12.7666 144.127 10.7304C144.661 10.309 146.034 9.27754 146.875 8.87525C149.355 7.69889 150.657 6.98583 151.378 6.28421C152.516 5.16695 153.42 2.83711 152.326 1.42624C150.966 -0.314474 148.619 1.0678 147.584 1.68553Z" fill="white"/>
<path fill-rule="evenodd" clip-rule="evenodd" d="M40.9076 70.6577C40.9076 71.6034 40.1202 72.366 39.1898 72.3889C38.2632 72.366 37.4758 71.6034 37.4758 70.6577L37.4796 39.7939H27.3633V73.815C27.3633 75.4833 28.7093 76.8427 30.3566 76.8427H48.0325C49.6913 76.8427 51.0221 75.4833 51.0221 73.815V39.7939H40.9153L40.9076 70.6577Z" fill="white"/>
<path fill-rule="evenodd" clip-rule="evenodd" d="M88.3599 39.793H73.0519H57.744C55.9308 39.793 54.457 41.2763 54.457 43.1142V76.8436H64.5791V45.9055C64.5867 44.9579 65.3512 44.2067 66.2931 44.2067C67.2349 44.2067 67.9938 44.9388 68.0166 45.8788V76.8436H78.0968V45.8788C78.1101 44.9388 78.867 44.2067 79.8127 44.2067C80.745 44.2067 81.5191 44.9579 81.5248 45.9055V76.8436H91.6506V43.1142C91.6506 41.2763 90.1692 39.793 88.3599 39.793Z" fill="white"/>
<path fill-rule="evenodd" clip-rule="evenodd" d="M13.8316 61.2049C13.8392 62.2325 13.0098 62.9456 12.1195 62.9456H10.3997V44.2077H12.1195C13.0041 44.2077 13.8392 44.9398 13.8316 45.9694V61.2049ZM20.6838 39.7939H0.291016V76.8427H10.3997V67.5328H20.619C22.4512 67.5328 23.9326 66.0457 23.9326 64.1925V43.1305C23.9326 41.2868 22.5084 39.7939 20.6838 39.7939Z" fill="white"/>
<path fill-rule="evenodd" clip-rule="evenodd" d="M108.623 62.9513H105.185V45.9198C105.194 44.9779 105.965 44.2248 106.901 44.2248C107.845 44.2248 108.598 44.9493 108.623 45.8931V62.9513ZM115.439 39.7939H98.3708C96.5577 39.7939 95.0801 41.2773 95.0801 43.1152V76.8427H105.185V67.5404H108.623V76.8427H118.729V43.1152C118.729 41.2773 117.256 39.7939 115.439 39.7939Z" fill="white"/>
</svg>
