<svg width="142" height="71" viewBox="0 0 142 71" fill="none" xmlns="http://www.w3.org/2000/svg">
<path fill-rule="evenodd" clip-rule="evenodd" d="M108.541 5.40039C102.008 5.40039 97.6172 9.26713 97.6172 15.0227C97.6172 20.5123 102.314 24.6517 108.541 24.6517C114.978 24.6517 119.474 20.6919 119.474 15.0227C119.474 9.26713 115.081 5.40039 108.541 5.40039ZM108.539 19.9122C105.81 19.9122 103.589 17.7015 103.589 14.9834C103.589 12.2879 105.81 10.0946 108.539 10.0946C111.259 10.0946 113.472 12.2879 113.472 14.9834C113.472 17.7015 111.259 19.9122 108.539 19.9122Z" fill="white"/>
<path fill-rule="evenodd" clip-rule="evenodd" d="M86.5156 5.69229H82.5829V10.6627L85.2481 10.6717C87.4142 10.6717 89.1774 12.5335 89.1774 14.8229C89.1774 17.6353 86.8969 19.0021 85.3553 19.0399H80.4818V0.531738H74.4414V24.0193H85.3133C90.12 24.0193 95.2662 20.4071 95.2662 15.0302C95.2662 9.18477 90.8169 5.69229 86.5156 5.69229Z" fill="white"/>
<path fill-rule="evenodd" clip-rule="evenodd" d="M32.061 14.8584C32.061 12.5343 33.9445 10.643 36.2584 10.643H41.0416L37.1804 17.0523H42.9493L46.8325 11.0136V5.70605L35.3075 5.71921C30.2805 5.71921 26.1914 9.82408 26.1914 14.8685C26.1914 19.9137 30.2805 24.019 35.3072 24.019H46.8689V19.0723H36.2584C33.9445 19.0723 32.061 17.1816 32.061 14.8584Z" fill="white"/>
<path fill-rule="evenodd" clip-rule="evenodd" d="M14.8702 0.531738H0.128906V24.0184H5.98481V5.65568L13.5816 5.66254C15.665 5.6654 17.891 6.76798 17.891 9.85588C17.891 12.217 16.2172 14.009 13.8727 14.009L8.01607 14.0059V18.9003H12.1205C15.6465 19.0422 17.2051 20.6506 17.2279 24.115V29.1373H23.3718V22.4508C23.3718 18.9068 20.8484 17.1062 18.4193 16.4994C22.2353 15.216 24.1133 12.266 24.1133 8.69058C24.1133 3.6511 19.3155 0.531738 14.8702 0.531738Z" fill="white"/>
<path fill-rule="evenodd" clip-rule="evenodd" d="M135.792 14.2379C139.857 12.97 141.016 10.7548 141.032 6.35054V5.67256H135.059V6.66627C135.059 9.61747 133.799 11.7315 131 11.7315L128.159 11.733V0.532227H122.096V24.0188H128.159V16.696H130.334C133.349 16.696 135.191 18.423 135.191 21.1449V24.0188H141.217V21.3422C141.217 17.8326 139.649 15.2976 135.792 14.2379Z" fill="white"/>
<path fill-rule="evenodd" clip-rule="evenodd" d="M55.6098 14.8584C55.6098 12.5343 57.4934 10.643 59.8072 10.643H64.5906L60.7294 17.0523H66.4987L70.3813 11.0136V5.70605L58.8566 5.71921C53.8295 5.71921 49.7402 9.82408 49.7402 14.8685C49.7402 19.9137 53.8295 24.019 58.8562 24.019H70.4179V19.0723H59.8072C57.4934 19.0723 55.6098 17.1816 55.6098 14.8584Z" fill="white"/>
<path fill-rule="evenodd" clip-rule="evenodd" d="M90.4614 49.1565C105.969 42.9822 115.626 39.4255 141.214 33.2407C127.328 34.1526 96.585 36.2529 75.4004 40.3647C75.4004 40.3647 90.1322 48.9645 90.4614 49.1565Z" fill="white"/>
<path fill-rule="evenodd" clip-rule="evenodd" d="M42.2363 69.6138H62.5048C66.5199 63.5665 70.5153 60.6167 75.1678 57.3349C71.6465 55.9821 68.1087 54.675 64.5109 53.4102C51.5658 59.0927 44.366 66.7179 42.2363 69.6138Z" fill="white"/>
<path fill-rule="evenodd" clip-rule="evenodd" d="M46.244 47.6055C28.174 54.0339 18.1093 61.0129 11.3242 69.6143H33.7164C35.8981 66.5945 44.2057 57.8858 59.8187 51.8295C55.5123 50.382 48.032 48.0579 46.244 47.6055Z" fill="white"/>
<mask id="mask0_420_4997" style="mask-type:luminance" maskUnits="userSpaceOnUse" x="6" y="34" width="113" height="37">
<path fill-rule="evenodd" clip-rule="evenodd" d="M6.00391 34.0688H118.671V70.8907H6.00391V34.0688Z" fill="white"/>
</mask>
<g mask="url(#mask0_420_4997)">
<path fill-rule="evenodd" clip-rule="evenodd" d="M55.5255 34.0688H6.00391C55.9291 43.045 79.9856 54.5781 118.671 70.8909C115.364 68.4337 62.0453 37.1993 55.5255 34.0688Z" fill="white"/>
</g>
</svg>
